<?xml version="1.0" encoding="UTF-8" standalone="no"?>
<svg width="300" height="300" viewBox="0 0 300 300" xmlns="http://www.w3.org/2000/svg">
  <style>
    .st0{fill:#e02323;}
    .st1{fill:#333333;}
    .st2{fill:#ffffff;}
  </style>
  <circle cx="150" cy="150" r="150" class="st1"/>
  <circle cx="150" cy="150" r="120" class="st2"/>
  <circle cx="150" cy="150" r="100" class="st1"/>
  <circle cx="150" cy="150" r="70" class="st2"/>
  <circle cx="150" cy="150" r="50" class="st1"/>
  <circle cx="150" cy="150" r="30" class="st0"/>
  <circle cx="150" cy="150" r="10" class="st2"/>
  <rect x="145" y="30" width="10" height="50" class="st1"/>
  <rect x="145" y="220" width="10" height="50" class="st1"/>
  <g transform="rotate(45 150 150)">
    <rect x="145" y="30" width="10" height="50" class="st1"/>
    <rect x="145" y="220" width="10" height="50" class="st1"/>
  </g>
  <g transform="rotate(90 150 150)">
    <rect x="145" y="30" width="10" height="50" class="st1"/>
    <rect x="145" y="220" width="10" height="50" class="st1"/>
  </g>
  <g transform="rotate(135 150 150)">
    <rect x="145" y="30" width="10" height="50" class="st1"/>
    <rect x="145" y="220" width="10" height="50" class="st1"/>
  </g>
</svg>
